<?xml version="1.0" encoding="UTF-8" standalone="no"?>
<svg
   xmlns:dc="http://purl.org/dc/elements/1.1/"
   xmlns:cc="http://creativecommons.org/ns#"
   xmlns:rdf="http://www.w3.org/1999/02/22-rdf-syntax-ns#"
   xmlns:svg="http://www.w3.org/2000/svg"
   xmlns="http://www.w3.org/2000/svg"
   xmlns:sodipodi="http://sodipodi.sourceforge.net/DTD/sodipodi-0.dtd"
   xmlns:inkscape="http://www.inkscape.org/namespaces/inkscape"
   sodipodi:docname="approved-ring.svg"
   inkscape:version="1.0 (4035a4fb49, 2020-05-01)"
   id="svg1159"
   version="1.1"
   viewBox="0 0 132.29166 132.29167"
   height="500"
   width="500">
  <defs
     id="defs1153" />
  <sodipodi:namedview
     inkscape:window-maximized="1"
     inkscape:window-y="-8"
     inkscape:window-x="-8"
     inkscape:window-height="697"
     inkscape:window-width="1280"
     units="px"
     showgrid="false"
     inkscape:document-rotation="0"
     inkscape:current-layer="layer1"
     inkscape:document-units="mm"
     inkscape:cy="360.91417"
     inkscape:cx="1545.3782"
     inkscape:zoom="0.25"
     inkscape:pageshadow="2"
     inkscape:pageopacity="0.0"
     borderopacity="1.0"
     bordercolor="#666666"
     pagecolor="#ffffff"
     id="base" />
  <metadata
     id="metadata1156">
    <rdf:RDF>
      <cc:Work
         rdf:about="">
        <dc:format>image/svg+xml</dc:format>
        <dc:type
           rdf:resource="http://purl.org/dc/dcmitype/StillImage" />
        <dc:title></dc:title>
      </cc:Work>
    </rdf:RDF>
  </metadata>
  <g
     id="layer1"
     inkscape:groupmode="layer"
     inkscape:label="Layer 1">
    <path
       transform="scale(0.26458333)"
       d="M 250.22461 0.22070312 C 112.48917 0.2207043 0.2207043 112.48917 0.22070312 250.22461 C 0.22069373 387.96005 112.48916 500.22656 250.22461 500.22656 C 386.99328 500.22656 498.51748 389.49727 500.07812 253.08789 A 28.346457 28.346457 0 0 0 500.22656 250.22461 A 28.346457 28.346457 0 0 0 500.07812 247.375 C 498.52538 110.9588 386.99827 0.2206938 250.22461 0.22070312 z M 250.22461 56.914062 C 357.32093 56.914055 443.5332 143.12829 443.5332 250.22461 C 443.5332 357.32094 357.32094 443.5332 250.22461 443.5332 C 143.12829 443.5332 56.914055 357.32093 56.914062 250.22461 C 56.914062 143.12829 143.12829 56.914062 250.22461 56.914062 z M 363.56641 156.13086 C 357.40045 156.17036 351.3079 158.29773 346.39258 162.61133 L 214.12891 278.68359 L 151.66211 232.51172 C 139.6415 223.62673 122.46921 226.61396 113.1582 239.21094 L 113.07422 239.32617 C 103.76322 251.92314 105.94423 269.21657 117.96484 278.10156 L 196.21484 335.93945 C 199.05616 338.61791 202.29861 340.62925 205.72656 341.95508 C 209.36009 343.43022 213.23271 344.0362 217.08008 343.82812 C 217.23576 343.82094 217.3914 343.81451 217.54688 343.80469 C 217.65769 343.79675 217.76817 343.78837 217.87891 343.7793 C 221.24503 343.52682 224.5556 342.64878 227.62891 341.11914 C 230.98943 339.51068 234.10453 337.21647 236.74609 334.26758 L 383.78711 205.22266 C 395.02213 195.36301 395.72946 177.92243 385.37109 166.11914 C 379.5445 159.47979 371.49404 156.08007 363.56641 156.13086 z "
       style="color:#000000;font-style:normal;font-variant:normal;font-weight:normal;font-stretch:normal;font-size:medium;line-height:normal;font-family:sans-serif;font-variant-ligatures:normal;font-variant-position:normal;font-variant-caps:normal;font-variant-numeric:normal;font-variant-alternates:normal;font-variant-east-asian:normal;font-feature-settings:normal;font-variation-settings:normal;text-indent:0;text-align:start;text-decoration:none;text-decoration-line:none;text-decoration-style:solid;text-decoration-color:#000000;letter-spacing:normal;word-spacing:normal;text-transform:none;writing-mode:lr-tb;direction:ltr;text-orientation:mixed;dominant-baseline:auto;baseline-shift:baseline;text-anchor:start;white-space:normal;shape-padding:0;shape-margin:0;inline-size:0;clip-rule:nonzero;display:inline;overflow:visible;visibility:visible;opacity:1;isolation:auto;mix-blend-mode:normal;color-interpolation:sRGB;color-interpolation-filters:linearRGB;solid-color:#000000;solid-opacity:1;vector-effect:none;fill:#000000;fill-opacity:1;fill-rule:nonzero;stroke:none;stroke-width:56.6929;stroke-linecap:round;stroke-linejoin:round;stroke-miterlimit:4;stroke-dasharray:none;stroke-dashoffset:0;stroke-opacity:1;color-rendering:auto;image-rendering:auto;shape-rendering:auto;text-rendering:auto;enable-background:accumulate;stop-color:#000000;stop-opacity:1"
       id="path1000" />
  </g>
</svg>
