<?xml version="1.0" encoding="UTF-8" standalone="no"?>
<svg
   xmlns:dc="http://purl.org/dc/elements/1.1/"
   xmlns:cc="http://creativecommons.org/ns#"
   xmlns:rdf="http://www.w3.org/1999/02/22-rdf-syntax-ns#"
   xmlns:svg="http://www.w3.org/2000/svg"
   xmlns="http://www.w3.org/2000/svg"
   xmlns:sodipodi="http://sodipodi.sourceforge.net/DTD/sodipodi-0.dtd"
   xmlns:inkscape="http://www.inkscape.org/namespaces/inkscape"
   sodipodi:docname="approved-fill.svg"
   inkscape:version="1.0 (4035a4fb49, 2020-05-01)"
   id="svg1159"
   version="1.1"
   viewBox="0 0 132.29166 132.29167"
   height="500"
   width="500">
  <defs
     id="defs1153" />
  <sodipodi:namedview
     inkscape:window-maximized="1"
     inkscape:window-y="-8"
     inkscape:window-x="-8"
     inkscape:window-height="697"
     inkscape:window-width="1280"
     units="px"
     showgrid="false"
     inkscape:document-rotation="0"
     inkscape:current-layer="layer1"
     inkscape:document-units="mm"
     inkscape:cy="360.91417"
     inkscape:cx="1545.3782"
     inkscape:zoom="0.25"
     inkscape:pageshadow="2"
     inkscape:pageopacity="0.0"
     borderopacity="1.0"
     bordercolor="#666666"
     pagecolor="#ffffff"
     id="base" />
  <metadata
     id="metadata1156">
    <rdf:RDF>
      <cc:Work
         rdf:about="">
        <dc:format>image/svg+xml</dc:format>
        <dc:type
           rdf:resource="http://purl.org/dc/dcmitype/StillImage" />
        <dc:title></dc:title>
      </cc:Work>
    </rdf:RDF>
  </metadata>
  <g
     id="layer1"
     inkscape:groupmode="layer"
     inkscape:label="Layer 1">
    <path
       id="path891"
       style="color:#000000;font-style:normal;font-variant:normal;font-weight:normal;font-stretch:normal;font-size:medium;line-height:normal;font-family:sans-serif;font-variant-ligatures:normal;font-variant-position:normal;font-variant-caps:normal;font-variant-numeric:normal;font-variant-alternates:normal;font-variant-east-asian:normal;font-feature-settings:normal;font-variation-settings:normal;text-indent:0;text-align:start;text-decoration:none;text-decoration-line:none;text-decoration-style:solid;text-decoration-color:#000000;letter-spacing:normal;word-spacing:normal;text-transform:none;writing-mode:lr-tb;direction:ltr;text-orientation:mixed;dominant-baseline:auto;baseline-shift:baseline;text-anchor:start;white-space:normal;shape-padding:0;shape-margin:0;inline-size:0;clip-rule:nonzero;display:inline;overflow:visible;visibility:visible;opacity:1;isolation:auto;mix-blend-mode:normal;color-interpolation:sRGB;color-interpolation-filters:linearRGB;solid-color:#000000;solid-opacity:1;vector-effect:none;fill:#000000;fill-opacity:1;fill-rule:nonzero;stroke:none;stroke-width:15;stroke-linecap:round;stroke-linejoin:round;stroke-miterlimit:4;stroke-dasharray:none;stroke-dashoffset:0;stroke-opacity:1;color-rendering:auto;image-rendering:auto;shape-rendering:auto;text-rendering:auto;enable-background:accumulate;stop-color:#000000;stop-opacity:1"
       d="m 66.14634,-7.8166667e-4 c -36.44251,0 -66.14737683,29.70436966667 -66.14737683,66.14685966667 0,36.442502 29.70486683,66.146372 66.14737683,66.146372 36.18671,0 65.69364,-29.29713 66.10656,-65.388792 a 7.5000001,7.5000001 0 0 0 0.0398,-0.75758 7.5000001,7.5000001 0 0 0 -0.0398,-0.75395 C 131.84207,29.298668 102.33437,-7.8166667e-4 66.14634,-7.8166667e-4 Z M 96.13469,41.250428 c 2.09752,-0.0135 4.22754,0.88606 5.76916,2.64274 2.74065,3.12296 2.5535,7.73745 -0.4191,10.34613 l -38.9046,34.14316 c -0.69891,0.7802 -1.52311,1.38724 -2.41225,1.81279 -0.81315,0.40474 -1.68907,0.63704 -2.57969,0.70385 -0.0293,0.003 -0.0585,0.005 -0.0878,0.007 -0.0411,0.003 -0.0823,0.004 -0.12351,0.006 -1.01795,0.055 -2.04258,-0.10581 -3.00395,-0.4961 -0.90698,-0.35081 -1.76487,-0.88246 -2.51664,-1.59112 L 31.15267,73.521928 c -3.18045,-2.35083 -3.75752,-6.9269 -1.29398,-10.25983 l 0.0217,-0.0305 c 2.46354,-3.33293 7.00704,-4.12332 10.18749,-1.7725 l 16.52819,12.21632 34.99476,-30.71079 c 1.30051,-1.14131 2.9125,-1.70421 4.54391,-1.71464 z" />
  </g>
</svg>
