<?xml version="1.0" encoding="UTF-8" standalone="no"?>
<svg
   xmlns:dc="http://purl.org/dc/elements/1.1/"
   xmlns:cc="http://creativecommons.org/ns#"
   xmlns:rdf="http://www.w3.org/1999/02/22-rdf-syntax-ns#"
   xmlns:svg="http://www.w3.org/2000/svg"
   xmlns="http://www.w3.org/2000/svg"
   xmlns:sodipodi="http://sodipodi.sourceforge.net/DTD/sodipodi-0.dtd"
   xmlns:inkscape="http://www.inkscape.org/namespaces/inkscape"
   sodipodi:docname="ctb-ring.svg"
   inkscape:version="1.0 (4035a4fb49, 2020-05-01)"
   id="svg1931"
   version="1.1"
   viewBox="0 0 500 500"
   height="500mm"
   width="500mm">
  <defs
     id="defs1925" />
  <sodipodi:namedview
     inkscape:window-maximized="1"
     inkscape:window-y="-8"
     inkscape:window-x="-8"
     inkscape:window-height="697"
     inkscape:window-width="1280"
     showborder="false"
     fit-margin-bottom="0"
     fit-margin-right="0"
     fit-margin-left="0"
     fit-margin-top="0"
     inkscape:pagecheckerboard="true"
     inkscape:snap-global="false"
     showgrid="false"
     inkscape:document-rotation="0"
     inkscape:current-layer="layer1"
     inkscape:document-units="mm"
     inkscape:cy="828.26467"
     inkscape:cx="534.4812"
     inkscape:zoom="0.175"
     inkscape:pageshadow="2"
     inkscape:pageopacity="0.0"
     borderopacity="1.0"
     bordercolor="#666666"
     pagecolor="#ffffff"
     id="base" />
  <metadata
     id="metadata1928">
    <rdf:RDF>
      <cc:Work
         rdf:about="">
        <dc:format>image/svg+xml</dc:format>
        <dc:type
           rdf:resource="http://purl.org/dc/dcmitype/StillImage" />
        <dc:title></dc:title>
      </cc:Work>
    </rdf:RDF>
  </metadata>
  <g
     transform="translate(-5.9523705,-302.28574)"
     id="layer1"
     inkscape:groupmode="layer"
     inkscape:label="Layer 1">
    <path
       style="fill:#000000;stroke-width:1.11188"
       d="m 229.24278,802.03381 c -32.473,-3.83932 -58.0021,-11.2286 -86.149,-24.93561 C 72.404262,742.67395 23.403162,676.89473 8.5038422,596.42422 5.6701722,581.12098 5.0351722,534.86816 7.4200622,517.4616 14.468152,466.00701 36.938502,418.50031 72.449872,379.97486 c 32.218008,-34.9525 82.926008,-63.1632 130.652208,-72.68632 38.6989,-7.72184 83.003,-6.44919 119.5156,3.43319 39.25581,10.62487 77.32149,32.02098 106.5252,59.87547 43.41989,41.41407 70.79429,99.20936 75.88371,160.2107 5.1738,62.01172 -11.41841,121.71762 -47.74962,171.82639 -10.04358,13.8525 -30.26298,35.03727 -43.48609,45.56295 -32.72629,26.04947 -72.4199,43.93057 -113.96149,51.33755 -10.69991,1.90791 -18.61701,2.43602 -40.01741,2.66851 -14.6733,0.15891 -28.4293,0.08 -30.5692,-0.1687 z m 57.92521,-49.83539 c 57.7701,-10.63749 109.11009,-44.89098 138.611,-92.47983 15.94138,-25.71531 26.73559,-55.74501 30.27979,-84.2417 1.93051,-15.51693 0.79269,-45.86808 -2.257,-60.23947 -13.6489,-64.30838 -52.6804,-114.9485 -110.6197,-143.51934 -56.4555,-27.839 -116.3389,-28.43296 -172.2981,-1.70895 -44.7728,21.38195 -75.958498,52.24478 -97.302898,96.29391 -26.92453,55.56427 -27.16154,116.16864 -0.6707,171.27079 11.9321,24.81869 24.4962,42.21324 43.989998,60.9023 30.263,29.01354 71.0923,48.74747 113.4362,54.82807 13.3327,1.9142 43.63161,1.32469 56.83141,-1.10578 z m -45.69741,-59.50143 c -9.3302,-2.8498 -19.7749,-11.86129 -24.5734,-21.20278 -2.1406,-4.16719 -2.6414,-7.14513 -2.9931,-17.79408 -0.3649,-11.04955 -0.092,-13.65985 1.9788,-19.18091 3.1531,-8.39346 11.5773,-17.5926 19.8184,-21.64197 5.8574,-2.87718 7.3114,-3.10747 19.6645,-3.10747 11.355,0 14.1179,0.36036 18.57651,2.42117 11.35618,5.24928 19.53599,14.85839 22.5157,26.45072 5.9849,23.27917 -4.48141,45.73688 -24.7491,53.1029 -5.52731,2.00893 -24.79271,2.6162 -30.23831,0.95242 z m -90.904,-131.37421 c -11.3127,-2.23083 -22.481,-11.50775 -27.7998,-23.09159 -2.1965,-4.78351 -3.0106,-8.62662 -3.3632,-15.87428 -0.96,-19.7334 7.1799,-34.10122 23.6902,-41.81558 6.0366,-2.82092 7.8307,-3.11679 18.8974,-3.11679 10.9283,0 12.9,0.31316 18.5596,2.96962 7.7514,3.6354 15.299,10.99032 19.3923,18.89813 2.6886,5.19361 3.1272,7.46626 3.5034,18.16931 0.3654,10.38282 0.077,13.16711 -1.889,18.40365 -7.5278,20.02554 -27.6331,30.06284 -50.9909,25.45753 z m 188.0082,0.0245 c -11.22931,-2.22354 -23.47499,-12.1332 -28.4504,-23.02285 -2.0428,-4.47156 -2.42549,-7.36362 -2.46571,-18.63874 -0.043,-12.40264 0.171,-13.79189 3.05141,-19.65998 3.9482,-8.04394 14.26139,-17.76829 21.5555,-20.32443 2.9472,-1.03258 9.11019,-2.15446 13.6956,-2.49341 19.87979,-1.46768 35.87671,7.89707 42.97389,25.15769 3.5211,8.56273 3.65832,24.97741 0.28202,33.99946 -2.82162,7.54549 -12.06391,17.92598 -19.08352,21.43323 -8.62719,4.31105 -20.8008,5.68012 -31.5609,3.54903 z"
       id="path913" />
  </g>
</svg>
