<?xml version="1.0" encoding="UTF-8" standalone="no"?>
<svg
   xmlns:dc="http://purl.org/dc/elements/1.1/"
   xmlns:cc="http://creativecommons.org/ns#"
   xmlns:rdf="http://www.w3.org/1999/02/22-rdf-syntax-ns#"
   xmlns:svg="http://www.w3.org/2000/svg"
   xmlns="http://www.w3.org/2000/svg"
   xmlns:sodipodi="http://sodipodi.sourceforge.net/DTD/sodipodi-0.dtd"
   xmlns:inkscape="http://www.inkscape.org/namespaces/inkscape"
   width="500"
   height="500"
   viewBox="0 0 132.29166 132.29167"
   version="1.1"
   id="svg1159"
   inkscape:version="1.0 (4035a4fb49, 2020-05-01)"
   sodipodi:docname="graveyard-fill.svg">
  <defs
     id="defs1153" />
  <sodipodi:namedview
     id="base"
     pagecolor="#ffffff"
     bordercolor="#666666"
     borderopacity="1.0"
     inkscape:pageopacity="0.0"
     inkscape:pageshadow="2"
     inkscape:zoom="0.35"
     inkscape:cx="400"
     inkscape:cy="331.42857"
     inkscape:document-units="mm"
     inkscape:current-layer="layer1"
     inkscape:document-rotation="0"
     showgrid="false"
     units="px"
     inkscape:window-width="1280"
     inkscape:window-height="697"
     inkscape:window-x="-8"
     inkscape:window-y="-8"
     inkscape:window-maximized="1" />
  <metadata
     id="metadata1156">
    <rdf:RDF>
      <cc:Work
         rdf:about="">
        <dc:format>image/svg+xml</dc:format>
        <dc:type
           rdf:resource="http://purl.org/dc/dcmitype/StillImage" />
        <dc:title></dc:title>
      </cc:Work>
    </rdf:RDF>
  </metadata>
  <g
     inkscape:label="Layer 1"
     inkscape:groupmode="layer"
     id="layer1">
    <path
       id="path893"
       style="opacity:1;fill:#000000;stroke:none;stroke-width:15;stroke-linecap:round;stroke-linejoin:round;stroke-miterlimit:1.6;stroke-dasharray:none"
       d="m 66.144802,5.175e-4 c -30.59665,0 -56.480274,21.6018495 -56.480274,49.6150595 v 75.175773 a 7.5006999,7.5006999 0 0 0 7.4998,7.4998 h 97.963012 a 7.5006999,7.5006999 0 0 0 7.4998,-7.4998 V 49.615577 C 122.62714,21.602257 96.741455,5.175e-4 66.144802,5.175e-4 Z M 50.379356,33.526637 c 1.917144,0 3.834016,0.73448 5.303036,2.20348 l 10.46241,10.46241 10.462927,-10.46241 c 2.93801,-2.93802 7.668567,-2.93802 10.60659,0 2.938037,2.93803 2.938037,7.66857 0,10.60659 l -10.46241,10.46292 10.46241,10.46242 c 2.938037,2.93801 2.938037,7.66855 0,10.60659 -2.938023,2.93804 -7.66858,2.93804 -10.60659,0 l -10.462927,-10.46293 -10.46241,10.46293 c -2.93804,2.93804 -7.668578,2.93804 -10.606588,0 -2.938039,-2.93804 -2.938039,-7.66858 0,-10.60659 L 55.538731,56.799627 45.075804,46.336707 c -2.938039,-2.93802 -2.938039,-7.66856 0,-10.60659 1.46902,-1.469 3.386402,-2.20348 5.303552,-2.20348 z" />
  </g>
</svg>
