<?xml version="1.0" encoding="UTF-8" standalone="no"?>
<svg
   xmlns:dc="http://purl.org/dc/elements/1.1/"
   xmlns:cc="http://creativecommons.org/ns#"
   xmlns:rdf="http://www.w3.org/1999/02/22-rdf-syntax-ns#"
   xmlns:svg="http://www.w3.org/2000/svg"
   xmlns="http://www.w3.org/2000/svg"
   xmlns:sodipodi="http://sodipodi.sourceforge.net/DTD/sodipodi-0.dtd"
   xmlns:inkscape="http://www.inkscape.org/namespaces/inkscape"
   width="500"
   height="500"
   viewBox="0 0 132.29166 132.29167"
   version="1.1"
   id="svg1159"
   inkscape:version="1.0 (4035a4fb49, 2020-05-01)"
   sodipodi:docname="loved-stroke.svg">
  <defs
     id="defs1153" />
  <sodipodi:namedview
     id="base"
     pagecolor="#ffffff"
     bordercolor="#666666"
     borderopacity="1.0"
     inkscape:pageopacity="0.0"
     inkscape:pageshadow="2"
     inkscape:zoom="0.35"
     inkscape:cx="400"
     inkscape:cy="331.42857"
     inkscape:document-units="mm"
     inkscape:current-layer="layer1"
     inkscape:document-rotation="0"
     showgrid="false"
     units="px"
     inkscape:window-width="1280"
     inkscape:window-height="697"
     inkscape:window-x="-8"
     inkscape:window-y="-8"
     inkscape:window-maximized="1" />
  <metadata
     id="metadata1156">
    <rdf:RDF>
      <cc:Work
         rdf:about="">
        <dc:format>image/svg+xml</dc:format>
        <dc:type
           rdf:resource="http://purl.org/dc/dcmitype/StillImage" />
        <dc:title></dc:title>
      </cc:Work>
    </rdf:RDF>
  </metadata>
  <g
     inkscape:label="Layer 1"
     inkscape:groupmode="layer"
     id="layer1">
    <path
       id="path931"
       d="m 42.241784,6.7080242 c -3.70319,-0.004 -7.391141,0.47815 -10.968541,1.43406 C 16.733323,12.026784 5.3386934,23.380967 1.4369434,37.900507 c -3.90173,14.51959 0.27364,30.05153 10.9252596,40.6729 a 8.306717,8.3067155 0 0 0 0.002,0 l 5.481009,5.46803 36.954651,36.846543 a 8.306717,8.3067155 0 0 0 0,0.002 c 0.773509,0.77132 1.615361,1.45567 2.506901,2.04404 0.894019,0.58989 1.834509,1.0808 2.801059,1.47299 0.965311,0.39168 1.964351,0.68807 2.978441,0.88466 1.017479,0.19732 2.042239,0.292 3.060649,0.292 1.020231,0 2.042272,-0.0957 3.056311,-0.292 a 8.306717,8.3067155 0 0 0 0.004,0 c 1.012349,-0.19633 2.00882,-0.49212 2.976269,-0.88466 0.96837,-0.39293 1.909389,-0.88465 2.801059,-1.47299 0.892072,-0.58858 1.73519,-1.27239 2.50907,-2.04404 a 8.306717,8.3067155 0 0 0 0,-0.002 l 36.952558,-36.846543 5.48317,-5.46803 c 10.65176,-10.62137 14.82709,-26.15331 10.92539,-40.6729 C 126.95309,23.381137 115.55812,12.026964 101.01845,8.1420842 88.954815,4.9187542 76.240683,7.2998342 66.161834,14.246054 59.169105,9.4174842 50.857755,6.7192442 42.241305,6.7080242 Z M 90.046036,23.317637 c 2.226868,-0.004 4.474318,0.28078 6.685809,0.87168 8.845875,2.36353 15.715835,9.22247 18.080465,18.02204 2.36464,8.79968 -0.1443,18.15011 -6.61228,24.5997 l -5.48317,5.46587 -36.571875,36.468033 -36.569682,-36.468033 -5.4832,-5.46587 c -6.46797,-6.44959 -8.97693,-15.80002 -6.61227,-24.5997 2.3647,-8.79966 9.236621,-15.65861 18.082622,-18.02204 2.171409,-0.58022 4.409249,-0.87239 6.657678,-0.86952 6.781462,0.009 13.272431,2.69602 18.060992,7.47097 a 8.306717,8.3067155 0 0 0 11.729879,0.002 c 4.851029,-4.83716 11.354461,-7.46256 18.035032,-7.47531 z"
       style="color:#000000;font-style:normal;font-variant:normal;font-weight:normal;font-stretch:normal;font-size:medium;line-height:normal;font-family:sans-serif;font-variant-ligatures:normal;font-variant-position:normal;font-variant-caps:normal;font-variant-numeric:normal;font-variant-alternates:normal;font-variant-east-asian:normal;font-feature-settings:normal;font-variation-settings:normal;text-indent:0;text-align:start;text-decoration:none;text-decoration-line:none;text-decoration-style:solid;text-decoration-color:#000000;letter-spacing:normal;word-spacing:normal;text-transform:none;writing-mode:lr-tb;direction:ltr;text-orientation:mixed;dominant-baseline:auto;baseline-shift:baseline;text-anchor:start;white-space:normal;shape-padding:0;shape-margin:0;inline-size:0;clip-rule:nonzero;display:inline;overflow:visible;visibility:visible;isolation:auto;mix-blend-mode:normal;color-interpolation:sRGB;color-interpolation-filters:linearRGB;solid-color:#000000;solid-opacity:1;vector-effect:none;fill:#000000;fill-opacity:1;fill-rule:nonzero;stroke:none;stroke-width:15;stroke-linecap:butt;stroke-linejoin:round;stroke-miterlimit:1.6;stroke-dasharray:none;stroke-dashoffset:0;stroke-opacity:1;color-rendering:auto;image-rendering:auto;shape-rendering:auto;text-rendering:auto;enable-background:accumulate;stop-color:#000000" />
  </g>
</svg>
