<?xml version="1.0" encoding="UTF-8" standalone="no"?>
<svg
   xmlns:dc="http://purl.org/dc/elements/1.1/"
   xmlns:cc="http://creativecommons.org/ns#"
   xmlns:rdf="http://www.w3.org/1999/02/22-rdf-syntax-ns#"
   xmlns:svg="http://www.w3.org/2000/svg"
   xmlns="http://www.w3.org/2000/svg"
   xmlns:sodipodi="http://sodipodi.sourceforge.net/DTD/sodipodi-0.dtd"
   xmlns:inkscape="http://www.inkscape.org/namespaces/inkscape"
   width="500mm"
   height="500mm"
   viewBox="0 0 500.00002 500.00004"
   version="1.1"
   id="svg1320"
   inkscape:version="1.0 (4035a4fb49, 2020-05-01)"
   sodipodi:docname="mania-ring.svg">
  <defs
     id="defs1314" />
  <sodipodi:namedview
     id="base"
     pagecolor="#ffffff"
     bordercolor="#666666"
     borderopacity="1.0"
     inkscape:pageopacity="0.0"
     inkscape:pageshadow="2"
     inkscape:zoom="0.0875"
     inkscape:cx="-161.96783"
     inkscape:cy="1330.809"
     inkscape:document-units="mm"
     inkscape:current-layer="layer1"
     inkscape:document-rotation="0"
     showgrid="false"
     inkscape:pagecheckerboard="true"
     showborder="false"
     units="mm"
     fit-margin-top="0"
     fit-margin-left="0"
     fit-margin-right="0"
     fit-margin-bottom="0"
     inkscape:window-width="1280"
     inkscape:window-height="697"
     inkscape:window-x="-8"
     inkscape:window-y="-8"
     inkscape:window-maximized="1" />
  <metadata
     id="metadata1317">
    <rdf:RDF>
      <cc:Work
         rdf:about="">
        <dc:format>image/svg+xml</dc:format>
        <dc:type
           rdf:resource="http://purl.org/dc/dcmitype/StillImage" />
        <dc:title></dc:title>
      </cc:Work>
    </rdf:RDF>
  </metadata>
  <g
     inkscape:label="Layer 1"
     inkscape:groupmode="layer"
     id="layer1"
     transform="translate(-283.28566,-59.732483)">
    <path
       sodipodi:nodetypes="csssssssssssscssssssssssscscccscscccszsacssscsssssssssccsssccsssss"
       id="path891"
       d="m 506.57606,559.47932 c -32.47292,-3.8392 -58.00213,-11.2284 -86.14912,-24.9354 -70.68967,-34.42429 -119.69077,-100.2034 -134.58987,-180.67359 -2.8335,-15.30337 -3.4685,-61.55588 -1.0841,-78.9623 7.0483,-51.45474 29.5185,-98.96128 65.0299,-137.48647 32.21828,-34.95256 82.92654,-63.163225 130.65246,-72.686285 38.69887,-7.72182 83.00287,-6.44917 119.51534,3.43316 39.25571,10.62485 77.32182,32.020905 106.52552,59.875505 43.41987,41.41397 70.79455,99.20892 75.88375,160.20984 5.17356,62.01186 -11.41846,121.71792 -47.74975,171.82641 -10.04387,13.85258 -30.26327,35.03745 -43.48645,45.56293 -32.72588,26.0492 -72.41955,43.9305 -113.96092,51.3375 -10.70029,1.9078 -18.61711,2.4358 -40.01768,2.6685 -14.67315,0.1596 -28.42923,0.083 -30.56908,-0.1698 z m 57.92507,-49.8352 c 57.77032,-10.63767 109.11021,-44.89091 138.61115,-92.47942 15.94134,-25.71528 26.73532,-55.74513 30.2799,-84.24145 1.93013,-15.51688 0.79274,-45.86845 -2.25738,-60.23952 C 717.48599,208.3753 678.45466,157.73563 620.51528,129.16482 564.05971,101.32573 504.17626,100.7318 448.21697,127.45597 c -44.77257,21.38177 -75.95854,52.24419 -97.3029,96.29342 -26.9242,55.56433 -27.1615,116.16849 -0.6704,171.27029 11.932,24.81888 24.49619,42.21344 43.9899,60.90223 30.26316,29.01346 71.09214,48.74759 113.4363,54.82771 13.33262,1.9144 43.6314,1.325 56.83126,-1.1055 z M 522.38502,469.6393 c -7.66099,-1.86887 -12.50306,-5.88586 -13.72323,-7.47038 -1.39102,-1.80639 -3.55773,-4.88559 -4.03982,-8.95048 0.003,-7.91553 -0.26109,-142.106 -0.26109,-142.106 0.004,-95.0088 0.38314,-140.99192 1.18551,-143.88317 1.02197,-4.95602 4.18408,-8.33172 9.39626,-12.28349 3.22736,-2.44691 10.28744,-5.98539 19.38336,-5.80485 9.55483,0.335 13.79025,3.23847 17.8199,6.07152 2.89153,2.0329 7.84711,7.72598 8.06835,11.64862 v 0 l 0.27629,143.18056 c 0,0 0.24375,134.1175 0.2763,140.83084 0.009,1.76189 -0.6712,3.77637 -2.03464,6.29744 -1.36344,2.52107 -4.03161,5.95336 -8.79408,8.97018 -4.61584,2.92392 -11.28667,4.1185 -17.20242,4.58122 -3.45845,0.27052 -10.35069,-1.08201 -10.35069,-1.08201 z m -90.17478,-75.73796 c -6.39123,-1.99376 -13.98472,-9.47674 -16.19121,-15.95571 -1.45341,-4.26757 -1.70591,-14.20798 -1.70591,-67.15458 0,-41.64665 0.40501,-63.75396 1.22716,-67.02159 1.50669,-5.98654 7.47018,-13.16722 13.62101,-16.4011 3.68121,-1.93548 6.50009,-2.4211 14.05345,-2.4211 10.84031,0 16.20697,2.11577 21.94175,8.65052 6.4747,7.37787 6.40412,6.52441 6.40412,77.45497 0,65.04225 -6.7e-4,65.06176 -2.46278,69.66757 -6.66835,12.47455 -21.80893,17.88472 -36.88759,13.18102 z m 178.50947,0.0819 c -2.73312,-0.71954 -8.04689,-3.291 -11.3313,-6.83065 0,0 -4.29682,-4.44944 -4.43998,-8.44847 -0.36832,-10.28883 -0.31174,-66.83152 -0.31174,-66.83152 l -0.31173,-66.83151 0.0331,-2.54473 c 0.0898,-6.91117 8.74247,-17.48151 29.29037,-17.61632 5.75741,-0.0378 13.68759,1.68714 18.74013,6.37644 2.70861,2.51389 7.70447,7.44755 7.75828,13.42156 0.19197,6.25045 0.92119,19.38434 0.69441,67.01915 0,0 -0.26908,55.84666 -0.31258,65.70476 -0.0204,4.62102 -3.36416,7.7928 -3.36416,7.7928 -2.12963,3.17247 -9.4245,8.02297 -17.13535,9.47654 -5.57608,1.05115 -13.69509,0.79004 -16.68447,0.003 z"
       style="fill:#000000;stroke-width:1.11187" />
  </g>
</svg>
