<?xml version="1.0" encoding="UTF-8" standalone="no"?>
<svg
   xmlns:dc="http://purl.org/dc/elements/1.1/"
   xmlns:cc="http://creativecommons.org/ns#"
   xmlns:rdf="http://www.w3.org/1999/02/22-rdf-syntax-ns#"
   xmlns:svg="http://www.w3.org/2000/svg"
   xmlns="http://www.w3.org/2000/svg"
   xmlns:sodipodi="http://sodipodi.sourceforge.net/DTD/sodipodi-0.dtd"
   xmlns:inkscape="http://www.inkscape.org/namespaces/inkscape"
   sodipodi:docname="std-ring.svg"
   inkscape:version="1.0 (4035a4fb49, 2020-05-01)"
   id="svg1931"
   version="1.1"
   viewBox="0 0 500 500"
   height="500mm"
   width="500mm">
  <defs
     id="defs1925" />
  <sodipodi:namedview
     inkscape:window-maximized="1"
     inkscape:window-y="-8"
     inkscape:window-x="-8"
     inkscape:window-height="697"
     inkscape:window-width="1280"
     showborder="false"
     fit-margin-bottom="0"
     fit-margin-right="0"
     fit-margin-left="0"
     fit-margin-top="0"
     inkscape:pagecheckerboard="true"
     inkscape:snap-global="false"
     showgrid="false"
     inkscape:document-rotation="0"
     inkscape:current-layer="layer1"
     inkscape:document-units="mm"
     inkscape:cy="721.35812"
     inkscape:cx="1519.0031"
     inkscape:zoom="0.175"
     inkscape:pageshadow="2"
     inkscape:pageopacity="0.0"
     borderopacity="1.0"
     bordercolor="#666666"
     pagecolor="#ffffff"
     id="base" />
  <metadata
     id="metadata1928">
    <rdf:RDF>
      <cc:Work
         rdf:about="">
        <dc:format>image/svg+xml</dc:format>
        <dc:type
           rdf:resource="http://purl.org/dc/dcmitype/StillImage" />
        <dc:title></dc:title>
      </cc:Work>
    </rdf:RDF>
  </metadata>
  <g
     transform="translate(254.53571,32.285718)"
     id="layer1"
     inkscape:groupmode="layer"
     inkscape:label="Layer 1">
    <path
       style="fill:#000000;stroke-width:1.11188"
       d="m -31.245383,467.4623 c -32.4729,-3.83943 -58.00214,-11.22852 -86.149107,-24.93571 -70.68962,-34.42452 -119.69069,-100.20374 -134.58983,-180.67356 -2.83347,-15.30387 -3.46847,-61.55644 -1.0841,-78.96269 7.04832,-51.45524 29.51852,-98.961548 65.02991,-137.486837 32.21826,-34.952628 82.92648,-63.16337 130.652397,-72.68647 38.69889,-7.72177 83.00285,-6.44912 119.51527,3.43321 39.255753,10.62483 77.321833,32.0209499 106.525563,59.875611 43.41956,41.414228 70.79467,99.208886 75.8838,160.210116 5.17371,62.01184 -11.41844,121.7182 -47.74981,171.82676 -10.04387,13.8525 -30.26328,35.03774 -43.48646,45.56281 -32.72584,26.04934 -72.419583,43.93084 -113.960943,51.33785 -10.70025,1.9078 -18.61706,2.4357 -40.01762015,2.66869 -14.67315985,0.15862 -28.42922985,0.08 -30.56906985,-0.1696 z m 57.92503,-49.83552 c 23.22272,-4.27633 48.19732,-13.41715 68.09253,-24.92272 50.945793,-29.46238 85.755613,-78.15783 98.706543,-138.08059 2.20343,-10.19513 2.52386,-14.85392 2.52386,-36.70045 0,-21.84496 -0.31937,-26.48971 -2.51423,-36.5671 C 179.1504,115.52491 139.33704,64.189615 80.848007,36.118064 25.045317,9.3356319 -34.450453,9.0982139 -89.604453,35.437863 c -44.772537,21.381852 -75.958527,52.244509 -97.302917,96.293377 -26.9242,55.56489 -27.16142,116.16922 -0.67038,171.27077 11.93205,24.81929 24.4962,42.21387 43.9899,60.90277 30.26316,29.01293 71.092137,48.74776 113.436287,54.82751 13.3326,1.91421 43.63138,1.3253 56.83121,-1.10551 z m -50.6996,-39.66395 c -54.15916,-5.63652 -102.180267,-39.4045 -125.669567,-88.36933 -10.0636,-20.97801 -14.65346,-39.65614 -15.69896,-63.88557 -1.81374,-42.03289 10.10959,-79.04773 35.71512,-110.87232 21.24296,-26.403118 54.266217,-46.431608 89.535177,-54.303616 13.05178,-2.91278 49.0459998,-3.538641 63.60124,-1.105601 23.57009,3.93987 50.73414,15.599259 69.93699,30.018469 29.639183,22.255258 50.979443,56.400378 59.481483,95.172088 2.97061,13.54655 2.96535,53.08131 -0.009,66.67029 -3.19284,14.58811 -7.75785,27.50383 -14.39857,40.73702 -30.03651,59.85557 -93.025523,93.16881 -162.494113,85.93857 z"
       id="path909" />
  </g>
</svg>
