<?xml version="1.0" encoding="UTF-8" standalone="no"?>
<svg
   xmlns:dc="http://purl.org/dc/elements/1.1/"
   xmlns:cc="http://creativecommons.org/ns#"
   xmlns:rdf="http://www.w3.org/1999/02/22-rdf-syntax-ns#"
   xmlns:svg="http://www.w3.org/2000/svg"
   xmlns="http://www.w3.org/2000/svg"
   xmlns:sodipodi="http://sodipodi.sourceforge.net/DTD/sodipodi-0.dtd"
   xmlns:inkscape="http://www.inkscape.org/namespaces/inkscape"
   sodipodi:docname="pending-fill.svg"
   inkscape:version="1.0 (4035a4fb49, 2020-05-01)"
   id="svg1159"
   version="1.1"
   viewBox="0 0 132.29166 132.29167"
   height="500"
   width="500">
  <defs
     id="defs1153" />
  <sodipodi:namedview
     inkscape:window-maximized="1"
     inkscape:window-y="-8"
     inkscape:window-x="-8"
     inkscape:window-height="697"
     inkscape:window-width="1280"
     units="px"
     showgrid="false"
     inkscape:document-rotation="0"
     inkscape:current-layer="layer1"
     inkscape:document-units="mm"
     inkscape:cy="134.55276"
     inkscape:cx="704.29033"
     inkscape:zoom="0.49497475"
     inkscape:pageshadow="2"
     inkscape:pageopacity="0.0"
     borderopacity="1.0"
     bordercolor="#666666"
     pagecolor="#ffffff"
     id="base" />
  <metadata
     id="metadata1156">
    <rdf:RDF>
      <cc:Work
         rdf:about="">
        <dc:format>image/svg+xml</dc:format>
        <dc:type
           rdf:resource="http://purl.org/dc/dcmitype/StillImage" />
        <dc:title></dc:title>
      </cc:Work>
    </rdf:RDF>
  </metadata>
  <g
     id="layer1"
     inkscape:groupmode="layer"
     inkscape:label="Layer 1">
    <path
       id="path1060"
       style="opacity:1;fill:#000000;stroke:none;stroke-width:15;stroke-linecap:round;stroke-linejoin:round;stroke-miterlimit:1.6;stroke-dasharray:none;stroke-opacity:1"
       d="m 34.565569,3.6858218 a 7.5007502,7.5007502 0 0 0 -0.0589,5.1e-4 h -6.09989 c -4.02256,0 -7.26104,3.23848 -7.26104,7.2610602 v 0.47801 c 0,3.71412 2.76127,6.75793 6.35103,7.20317 0.37286,7.70389 0.54177,15.27114 1.50429,22.344381 1.24799,9.171009 4.07718,18.4311 12.15999,24.054859 0.53372,0.37134 1.07016,0.717663 1.59991,1.087793 -1.24005,0.86299 -2.63713,1.7735 -3.67988,2.54299 -7.84339,5.78797 -10.23948,14.98542 -10.99418,23.78099 -0.57756,6.73168 -0.4236,13.842115 -0.65164,21.231775 -3.55976,0.47217 -6.28952,3.5025 -6.28952,7.19542 v 0.478 c 0,4.02262 3.23848,7.26106 7.26104,7.26106 h 6.13556 63.18321 6.159321 c 4.02259,0 7.26053,-3.23844 7.26053,-7.26106 v -0.478 c 0,-3.71414 -2.76127,-6.75793 -6.35103,-7.20318 -0.37285,-7.70405 -0.54176,-15.271505 -1.50429,-22.344875 -1.24801,-9.17101 -4.077173,-18.43111 -12.159982,-24.05487 -0.533691,-0.37132 -1.07019,-0.7177 -1.599909,-1.08779 1.240149,-0.863051 2.637049,-1.773453 3.679878,-2.543002 7.843333,-5.787901 10.239453,-14.98604 10.994153,-23.781491 0.57761,-6.731449 0.42317,-13.84141 0.65114,-21.23075 3.55999,-0.47196 6.29057,-3.50234 6.29057,-7.19542 v -0.47801 c 0,-4.0225802 -3.23847,-7.2610602 -7.26106,-7.2610602 h -6.096273 a 7.5007502,7.5007502 0 0 0 -0.063,-5.1e-4 H 66.145619 Z m 8.11269,39.7551912 c 0.63261,0.0159 1.53696,0.314719 2.7192,0.963769 4.73876,2.601581 10.63918,5.432329 20.53209,5.595522 10.63596,0.17544 16.792358,-2.825031 21.321678,-5.136632 4.81698,-2.4584 4.052681,3.22798 -3.680378,9.08109 -2.31542,1.752521 -7.69339,3.99855 -9.87951,4.83175 -1.24852,0.47585 -3.14624,1.255421 -3.6902,1.613342 -2.41972,1.592169 -2.57088,2.664759 -4.1026,2.637559 -0.99095,-0.01759 -1.42481,-0.864301 -3.55897,-2.273241 -1.0506,-0.693608 -2.86829,-1.39068 -4.00285,-1.78284 -2.15916,-0.746339 -6.85803,-3.564059 -9.03975,-5.17643 -6.99553,-5.16994 -9.36009,-10.42262 -6.61871,-10.353889 z m 24.14942,55.488082 c 5.26968,-0.0231 10.48088,2.420725 16.961239,7.325645 12.96067,9.80988 8.94887,12.77443 -17.442359,12.89018 -26.39118,0.11573 -30.26254,-2.81418 -16.83203,-12.73979 6.71523,-4.96281 12.04347,-7.453015 17.31315,-7.476035 z" />
  </g>
</svg>
