<?xml version="1.0" encoding="UTF-8" standalone="no"?>
<svg
   xmlns:dc="http://purl.org/dc/elements/1.1/"
   xmlns:cc="http://creativecommons.org/ns#"
   xmlns:rdf="http://www.w3.org/1999/02/22-rdf-syntax-ns#"
   xmlns:svg="http://www.w3.org/2000/svg"
   xmlns="http://www.w3.org/2000/svg"
   xmlns:sodipodi="http://sodipodi.sourceforge.net/DTD/sodipodi-0.dtd"
   xmlns:inkscape="http://www.inkscape.org/namespaces/inkscape"
   width="500"
   height="500"
   viewBox="0 0 132.29166 132.29167"
   version="1.1"
   id="svg1159"
   inkscape:version="1.0 (4035a4fb49, 2020-05-01)"
   sodipodi:docname="pending.svg">
  <defs
     id="defs1153" />
  <sodipodi:namedview
     id="base"
     pagecolor="#ffffff"
     bordercolor="#666666"
     borderopacity="1.0"
     inkscape:pageopacity="0.0"
     inkscape:pageshadow="2"
     inkscape:zoom="0.35"
     inkscape:cx="400"
     inkscape:cy="331.42857"
     inkscape:document-units="mm"
     inkscape:current-layer="layer1"
     inkscape:document-rotation="0"
     showgrid="false"
     units="px"
     inkscape:window-width="1280"
     inkscape:window-height="697"
     inkscape:window-x="-8"
     inkscape:window-y="-8"
     inkscape:window-maximized="1" />
  <metadata
     id="metadata1156">
    <rdf:RDF>
      <cc:Work
         rdf:about="">
        <dc:format>image/svg+xml</dc:format>
        <dc:type
           rdf:resource="http://purl.org/dc/dcmitype/StillImage" />
        <dc:title></dc:title>
      </cc:Work>
    </rdf:RDF>
  </metadata>
  <g
     inkscape:label="Layer 1"
     inkscape:groupmode="layer"
     id="layer1">
    <path
       d="m 34.565589,3.6858133 a 7.5007502,7.5007502 0 0 0 -0.05892,5.3e-4 h -6.099892 c -4.022567,0 -7.26104,3.23847 -7.26104,7.2610497 v 0.47801 c 0,3.71412 2.761271,6.75793 6.351032,7.20318 0.372851,7.70387 0.541761,15.27112 1.504288,22.34437 1.247987,9.17101 4.077177,18.4311 12.159986,24.05486 0.533717,0.37135 1.07016,0.71766 1.599909,1.08779 -1.240049,0.86299 -2.637102,1.7735 -3.679878,2.543 -7.843388,5.78796 -10.239481,14.98541 -10.994179,23.78098 -0.577585,6.73169 -0.423624,13.842127 -0.651642,21.231777 -3.559757,0.47218 -6.289516,3.5025 -6.289516,7.19543 v 0.47799 c 0,4.0226 3.238473,7.26107 7.26104,7.26107 h 6.135555 63.183214 6.159314 c 4.02259,0 7.26054,-3.23847 7.26054,-7.26107 v -0.47799 c 0,-3.71414 -2.76127,-6.75794 -6.35103,-7.20318 -0.37285,-7.70406 -0.54176,-15.271507 -1.50429,-22.344887 -1.24802,-9.17101 -4.07718,-18.4311 -12.159988,-24.05487 -0.533691,-0.37132 -1.070186,-0.71769 -1.599909,-1.08779 1.240155,-0.86305 2.63705,-1.77345 3.679878,-2.543 7.843339,-5.7879 10.239459,-14.98605 10.994149,-23.78149 0.57761,-6.73145 0.42318,-13.84141 0.65114,-21.23075 3.56,-0.47195 6.29058,-3.50234 6.29058,-7.19542 v -0.47801 c 0,-4.0225797 -3.23848,-7.2610497 -7.26107,-7.2610497 h -6.096263 a 7.5007502,7.5007502 0 0 0 -0.06305,-5.3e-4 H 66.145568 Z m 7.914243,15.0006297 h 47.466356 c -0.233892,7.57593 -0.232146,14.57755 -0.687308,19.88199 -0.193966,2.26058 -0.456142,4.16252 -0.818542,5.77846 -0.393118,0.0879 -0.871908,0.28104 -1.439704,0.59996 -4.11599,2.31162 -10.160238,5.07945 -20.804954,5.03277 -9.472613,-0.0415 -15.741095,-2.78672 -20.479888,-5.3883 -0.311706,-0.17114 -0.602324,-0.31172 -0.881063,-0.43615 -0.38174,-1.52374 -0.704082,-3.24804 -0.970491,-5.20588 -0.755624,-5.55289 -1.010523,-12.68044 -1.384406,-20.26285 z m 26.522918,42.41136 a 7.5007502,7.5007502 0 0 0 2.795191,11.84579 c 2.868004,1.18784 6.349603,3.56007 10.765737,6.63268 3.016329,2.09864 4.839626,6.24358 5.863219,13.76555 0.692971,5.09246 0.967264,11.533797 1.296035,18.411297 -1.157869,-1.52654 -3.171613,-3.33507 -5.98879,-5.46738 -12.960694,-9.809877 -20.843875,-9.775217 -34.27439,0.15039 -3.770101,2.78625 -6.176539,5.02121 -7.104459,6.79233 0.222382,-7.42989 0.229393,-14.290037 0.676963,-19.505767 0.616452,-7.18466 1.918943,-10.75555 4.955249,-12.9961 3.671517,-2.70941 8.233092,-5.80739 12.423536,-7.48637 a 7.5007502,7.5007502 0 0 0 2.771405,-11.9972 c 1.243145,0.98354 1.845284,1.69826 2.620513,1.71204 1.353952,0.0241 1.511062,-0.61026 3.199791,-1.85726 z"
       inkscape:transform-center-y="-3.3806191"
       inkscape:transform-center-x="7.4725433"
       style="opacity:1;fill:#000000;stroke:none;stroke-width:15;stroke-linecap:round;stroke-linejoin:round;stroke-miterlimit:1.6;stroke-dasharray:none;stroke-opacity:1"
       id="path967" />
  </g>
</svg>
