<?xml version="1.0" encoding="UTF-8" standalone="no"?>
<svg
   xmlns:dc="http://purl.org/dc/elements/1.1/"
   xmlns:cc="http://creativecommons.org/ns#"
   xmlns:rdf="http://www.w3.org/1999/02/22-rdf-syntax-ns#"
   xmlns:svg="http://www.w3.org/2000/svg"
   xmlns="http://www.w3.org/2000/svg"
   xmlns:sodipodi="http://sodipodi.sourceforge.net/DTD/sodipodi-0.dtd"
   xmlns:inkscape="http://www.inkscape.org/namespaces/inkscape"
   sodipodi:docname="ranked-stroke.svg"
   inkscape:version="1.0 (4035a4fb49, 2020-05-01)"
   id="svg1159"
   version="1.1"
   viewBox="0 0 132.29166 132.29167"
   height="500"
   width="500">
  <defs
     id="defs1153" />
  <sodipodi:namedview
     inkscape:window-maximized="1"
     inkscape:window-y="-8"
     inkscape:window-x="-8"
     inkscape:window-height="697"
     inkscape:window-width="1280"
     units="px"
     showgrid="false"
     inkscape:document-rotation="0"
     inkscape:current-layer="layer1"
     inkscape:document-units="mm"
     inkscape:cy="87.239978"
     inkscape:cx="833.88963"
     inkscape:zoom="0.35"
     inkscape:pageshadow="2"
     inkscape:pageopacity="0.0"
     borderopacity="1.0"
     bordercolor="#666666"
     pagecolor="#ffffff"
     id="base" />
  <metadata
     id="metadata1156">
    <rdf:RDF>
      <cc:Work
         rdf:about="">
        <dc:format>image/svg+xml</dc:format>
        <dc:type
           rdf:resource="http://purl.org/dc/dcmitype/StillImage" />
        <dc:title></dc:title>
      </cc:Work>
    </rdf:RDF>
  </metadata>
  <g
     id="layer1"
     inkscape:groupmode="layer"
     inkscape:label="Layer 1">
    <path
       transform="scale(0.26458333)"
       d="M 250 -0.00390625 C 112.26449 -0.00390625 -0.00390625 112.2646 -0.00390625 250 C -0.00390625 387.7354 112.26449 500.00391 250 500.00391 C 386.76865 500.00391 498.29291 389.27267 499.85352 252.86328 A 28.346457 28.346457 0 0 0 500.00391 250 A 28.346457 28.346457 0 0 0 499.85352 247.15039 C 498.30081 110.7342 386.77368 -0.00390625 250 -0.00390625 z M 250 56.691406 C 357.09628 56.691406 443.30859 142.90369 443.30859 250 C 443.30859 357.09628 357.09628 443.30859 250 443.30859 C 142.90357 443.30859 56.68934 357.09628 56.689453 250 C 56.689453 142.90369 142.90357 56.691406 250 56.691406 z M 248.70117 111.64844 C 244.33707 111.73707 239.93796 112.89682 235.89258 115.23242 L 125.39062 179.03125 C 112.44538 186.50519 108.13861 203.1108 115.73242 216.26367 C 123.32622 229.41654 139.86139 233.98761 152.80664 226.51367 L 249.34961 170.77344 L 345.89453 226.51367 C 358.83976 233.98761 375.373 229.4165 382.9668 216.26367 C 390.56062 203.1108 386.25189 186.50519 373.30664 179.03125 L 262.80664 115.23242 C 258.56019 112.78073 253.9263 111.63201 249.34961 111.65039 C 249.13259 111.64951 248.91839 111.64396 248.70117 111.64844 z M 250 229.89844 C 245.6359 229.98688 241.23874 231.14683 237.19336 233.48242 L 126.69336 297.28125 C 113.74811 304.75519 109.43939 321.3608 117.0332 334.51367 C 124.627 347.6665 141.16022 352.23761 154.10547 344.76367 L 250.65039 289.02344 L 347.19336 344.76367 C 360.13859 352.23761 376.67572 347.6665 384.26953 334.51367 C 391.86332 321.3608 387.55265 304.75519 374.60742 297.28125 L 264.10742 233.48242 C 259.86097 231.03076 255.22708 229.88198 250.65039 229.90039 C 250.43337 229.89948 250.21722 229.89284 250 229.89844 z "
       style="color:#000000;font-style:normal;font-variant:normal;font-weight:normal;font-stretch:normal;font-size:medium;line-height:normal;font-family:sans-serif;font-variant-ligatures:normal;font-variant-position:normal;font-variant-caps:normal;font-variant-numeric:normal;font-variant-alternates:normal;font-variant-east-asian:normal;font-feature-settings:normal;font-variation-settings:normal;text-indent:0;text-align:start;text-decoration:none;text-decoration-line:none;text-decoration-style:solid;text-decoration-color:#000000;letter-spacing:normal;word-spacing:normal;text-transform:none;writing-mode:lr-tb;direction:ltr;text-orientation:mixed;dominant-baseline:auto;baseline-shift:baseline;text-anchor:start;white-space:normal;shape-padding:0;shape-margin:0;inline-size:0;clip-rule:nonzero;display:inline;overflow:visible;visibility:visible;opacity:1;isolation:auto;mix-blend-mode:normal;color-interpolation:sRGB;color-interpolation-filters:linearRGB;solid-color:#000000;solid-opacity:1;vector-effect:none;fill:#000000;fill-opacity:1;fill-rule:nonzero;stroke:none;stroke-width:56.6929;stroke-linecap:round;stroke-linejoin:round;stroke-miterlimit:4;stroke-dasharray:none;stroke-dashoffset:0;stroke-opacity:1;color-rendering:auto;image-rendering:auto;shape-rendering:auto;text-rendering:auto;enable-background:accumulate;stop-color:#000000;stop-opacity:1"
       id="path918" />
  </g>
</svg>
