<?xml version="1.0" encoding="UTF-8" standalone="no"?>
<svg
   xmlns:dc="http://purl.org/dc/elements/1.1/"
   xmlns:cc="http://creativecommons.org/ns#"
   xmlns:rdf="http://www.w3.org/1999/02/22-rdf-syntax-ns#"
   xmlns:svg="http://www.w3.org/2000/svg"
   xmlns="http://www.w3.org/2000/svg"
   xmlns:sodipodi="http://sodipodi.sourceforge.net/DTD/sodipodi-0.dtd"
   xmlns:inkscape="http://www.inkscape.org/namespaces/inkscape"
   sodipodi:docname="ranked-fill.svg"
   inkscape:version="1.0 (4035a4fb49, 2020-05-01)"
   id="svg1159"
   version="1.1"
   viewBox="0 0 132.29166 132.29167"
   height="500"
   width="500">
  <defs
     id="defs1153" />
  <sodipodi:namedview
     inkscape:window-maximized="1"
     inkscape:window-y="-8"
     inkscape:window-x="-8"
     inkscape:window-height="697"
     inkscape:window-width="1280"
     units="px"
     showgrid="false"
     inkscape:document-rotation="0"
     inkscape:current-layer="layer1"
     inkscape:document-units="mm"
     inkscape:cy="92.729355"
     inkscape:cx="833.98321"
     inkscape:zoom="0.35"
     inkscape:pageshadow="2"
     inkscape:pageopacity="0.0"
     borderopacity="1.0"
     bordercolor="#666666"
     pagecolor="#ffffff"
     id="base" />
  <metadata
     id="metadata1156">
    <rdf:RDF>
      <cc:Work
         rdf:about="">
        <dc:format>image/svg+xml</dc:format>
        <dc:type
           rdf:resource="http://purl.org/dc/dcmitype/StillImage" />
        <dc:title></dc:title>
      </cc:Work>
    </rdf:RDF>
  </metadata>
  <g
     id="layer1"
     inkscape:groupmode="layer"
     inkscape:label="Layer 1">
    <path
       id="path1035"
       style="color:#000000;font-style:normal;font-variant:normal;font-weight:normal;font-stretch:normal;font-size:medium;line-height:normal;font-family:sans-serif;font-variant-ligatures:normal;font-variant-position:normal;font-variant-caps:normal;font-variant-numeric:normal;font-variant-alternates:normal;font-variant-east-asian:normal;font-feature-settings:normal;font-variation-settings:normal;text-indent:0;text-align:start;text-decoration:none;text-decoration-line:none;text-decoration-style:solid;text-decoration-color:#000000;letter-spacing:normal;word-spacing:normal;text-transform:none;writing-mode:lr-tb;direction:ltr;text-orientation:mixed;dominant-baseline:auto;baseline-shift:baseline;text-anchor:start;white-space:normal;shape-padding:0;shape-margin:0;inline-size:0;clip-rule:nonzero;display:inline;overflow:visible;visibility:visible;opacity:1;isolation:auto;mix-blend-mode:normal;color-interpolation:sRGB;color-interpolation-filters:linearRGB;solid-color:#000000;solid-opacity:1;vector-effect:none;fill:#000000;fill-opacity:1;fill-rule:nonzero;stroke:none;stroke-width:15;stroke-linecap:round;stroke-linejoin:round;stroke-miterlimit:4;stroke-dasharray:none;stroke-dashoffset:0;stroke-opacity:1;color-rendering:auto;image-rendering:auto;shape-rendering:auto;text-rendering:auto;enable-background:accumulate;stop-color:#000000;stop-opacity:1"
       d="m 66.14582,-7.64e-4 c -36.44252,0 -66.14686967,29.704371 -66.14686967,66.14686 0,36.442484 29.70434967,66.146334 66.14686967,66.146334 36.18669,0 65.69416,-29.2971 66.1071,-65.388753 a 7.5000001,7.5000001 0 0 0 0.0398,-0.757581 7.5000001,7.5000001 0 0 0 -0.0398,-0.753949 C 131.84207,29.298686 102.33386,-7.64e-4 66.14582,-7.64e-4 Z m -0.34364,29.54083 c 0.0575,-0.0021 0.11469,2.64e-4 0.17208,5.29e-4 1.21092,-0.005 2.43644,0.299029 3.56,0.947759 l 29.236957,16.880101 c 3.425113,1.977441 4.565123,6.371029 2.555933,9.85107 -2.009222,3.480009 -6.384113,4.689451 -9.809223,2.711979 L 65.97426,45.183574 40.43009,59.931504 c -3.42511,1.977472 -7.79999,0.768062 -9.80921,-2.711979 -2.0092,-3.480041 -0.86921,-7.873629 2.55589,-9.85107 l 29.23699,-16.88012 c 1.07035,-0.617958 2.23375,-0.924877 3.38842,-0.948269 z m 0.34417,31.286982 c 0.0575,-0.0021 0.11467,2.64e-4 0.17208,5.29e-4 1.21089,-0.005 2.43647,0.299119 3.56,0.947769 l 29.236957,16.880099 c 3.425083,1.977467 4.565123,6.371027 2.555933,9.851067 -2.009203,3.48001 -6.384142,4.68945 -9.809252,2.71198 L 66.31843,76.470566 40.77426,91.218492 c -3.42511,1.97747 -7.80005,0.76803 -9.80924,-2.71198 -2.00917,-3.48004 -0.86918,-7.8736 2.55592,-9.851067 L 62.75791,61.775346 c 1.07037,-0.617961 2.23377,-0.92488 3.38844,-0.948269 z" />
  </g>
</svg>
