<?xml version="1.0" encoding="UTF-8" standalone="no"?>
<svg
   xmlns:dc="http://purl.org/dc/elements/1.1/"
   xmlns:cc="http://creativecommons.org/ns#"
   xmlns:rdf="http://www.w3.org/1999/02/22-rdf-syntax-ns#"
   xmlns:svg="http://www.w3.org/2000/svg"
   xmlns="http://www.w3.org/2000/svg"
   xmlns:sodipodi="http://sodipodi.sourceforge.net/DTD/sodipodi-0.dtd"
   xmlns:inkscape="http://www.inkscape.org/namespaces/inkscape"
   width="500"
   height="500"
   viewBox="0 0 132.29166 132.29167"
   version="1.1"
   id="svg1159"
   inkscape:version="1.0 (4035a4fb49, 2020-05-01)"
   sodipodi:docname="star-stroke.svg">
  <defs
     id="defs1153" />
  <sodipodi:namedview
     id="base"
     pagecolor="#ffffff"
     bordercolor="#666666"
     borderopacity="1.0"
     inkscape:pageopacity="0.0"
     inkscape:pageshadow="2"
     inkscape:zoom="0.35"
     inkscape:cx="400"
     inkscape:cy="331.42857"
     inkscape:document-units="mm"
     inkscape:current-layer="layer1"
     inkscape:document-rotation="0"
     showgrid="false"
     units="px"
     inkscape:window-width="1280"
     inkscape:window-height="697"
     inkscape:window-x="-8"
     inkscape:window-y="-8"
     inkscape:window-maximized="1" />
  <metadata
     id="metadata1156">
    <rdf:RDF>
      <cc:Work
         rdf:about="">
        <dc:format>image/svg+xml</dc:format>
        <dc:type
           rdf:resource="http://purl.org/dc/dcmitype/StillImage" />
        <dc:title></dc:title>
      </cc:Work>
    </rdf:RDF>
  </metadata>
  <g
     inkscape:label="Layer 1"
     inkscape:groupmode="layer"
     id="layer1">
    <path
       style="color:#000000;font-style:normal;font-variant:normal;font-weight:normal;font-stretch:normal;font-size:medium;line-height:normal;font-family:sans-serif;font-variant-ligatures:normal;font-variant-position:normal;font-variant-caps:normal;font-variant-numeric:normal;font-variant-alternates:normal;font-variant-east-asian:normal;font-feature-settings:normal;font-variation-settings:normal;text-indent:0;text-align:start;text-decoration:none;text-decoration-line:none;text-decoration-style:solid;text-decoration-color:#000000;letter-spacing:normal;word-spacing:normal;text-transform:none;writing-mode:lr-tb;direction:ltr;text-orientation:mixed;dominant-baseline:auto;baseline-shift:baseline;text-anchor:start;white-space:normal;shape-padding:0;shape-margin:0;inline-size:0;clip-rule:nonzero;display:inline;overflow:visible;visibility:visible;isolation:auto;mix-blend-mode:normal;color-interpolation:sRGB;color-interpolation-filters:linearRGB;solid-color:#000000;solid-opacity:1;vector-effect:none;fill:#000000;fill-opacity:1;fill-rule:nonzero;stroke:none;stroke-width:15;stroke-linecap:round;stroke-linejoin:round;stroke-miterlimit:4;stroke-dasharray:none;stroke-dashoffset:0;stroke-opacity:1;color-rendering:auto;image-rendering:auto;shape-rendering:auto;text-rendering:auto;enable-background:accumulate;stop-color:#000000"
       d="m 66.166685,3.0176941 a 7.5095629,7.4919888 0 0 0 -6.933541,4.56427 L 44.481485,42.271144 6.854954,45.548274 a 7.5095629,7.4919888 0 0 0 -4.27236,13.1183 l 28.509681,24.71598 -8.503021,36.714616 a 7.5095629,7.4919888 0 0 0 11.18502,8.10665 l 32.371562,-19.41342 32.371559,19.41342 a 7.5095629,7.4919888 0 0 0 11.185055,-8.10665 l -8.50302,-36.714616 28.50964,-24.71598 a 7.5095629,7.4919888 0 0 0 -4.27233,-13.1183 L 87.810205,42.271144 73.058543,7.5819641 a 7.5095629,7.4919888 0 0 0 -6.891858,-4.56427 z m -0.0209,26.6717599 9.602071,22.57931 a 7.5095629,7.4919888 0 0 0 6.259639,4.53739 l 24.490955,2.13301 -18.557226,16.08738 a 7.5095629,7.4919888 0 0 0 -2.39037,7.34146 l 5.53431,23.898236 -21.07134,-12.636696 a 7.5095629,7.4919888 0 0 0 -7.73607,0 l -21.07134,12.636696 5.534351,-23.898236 a 7.5095629,7.4919888 0 0 0 -2.390431,-7.34146 l -18.55719,-16.08738 24.490939,-2.13301 a 7.5095629,7.4919888 0 0 0 6.25965,-4.53739 z"
       id="path1672" />
  </g>
</svg>
