<?xml version="1.0" encoding="UTF-8" standalone="no"?>
<svg
   xmlns:dc="http://purl.org/dc/elements/1.1/"
   xmlns:cc="http://creativecommons.org/ns#"
   xmlns:rdf="http://www.w3.org/1999/02/22-rdf-syntax-ns#"
   xmlns:svg="http://www.w3.org/2000/svg"
   xmlns="http://www.w3.org/2000/svg"
   xmlns:sodipodi="http://sodipodi.sourceforge.net/DTD/sodipodi-0.dtd"
   xmlns:inkscape="http://www.inkscape.org/namespaces/inkscape"
   sodipodi:docname="std.svg"
   inkscape:version="1.0 (4035a4fb49, 2020-05-01)"
   id="svg1931"
   version="1.1"
   viewBox="0 0 500 499.99999"
   height="500mm"
   width="500mm">
  <defs
     id="defs1925" />
  <sodipodi:namedview
     units="mm"
     inkscape:window-maximized="1"
     inkscape:window-y="-8"
     inkscape:window-x="-8"
     inkscape:window-height="697"
     inkscape:window-width="1280"
     showborder="false"
     fit-margin-bottom="0"
     fit-margin-right="0"
     fit-margin-left="0"
     fit-margin-top="0"
     inkscape:pagecheckerboard="true"
     inkscape:snap-global="false"
     showgrid="false"
     inkscape:document-rotation="0"
     inkscape:current-layer="layer1"
     inkscape:document-units="mm"
     inkscape:cy="774.13202"
     inkscape:cx="765.20238"
     inkscape:zoom="0.175"
     inkscape:pageshadow="2"
     inkscape:pageopacity="0.0"
     borderopacity="1.0"
     bordercolor="#666666"
     pagecolor="#ffffff"
     id="base" />
  <metadata
     id="metadata1928">
    <rdf:RDF>
      <cc:Work
         rdf:about="">
        <dc:format>image/svg+xml</dc:format>
        <dc:type
           rdf:resource="http://purl.org/dc/dcmitype/StillImage" />
        <dc:title></dc:title>
      </cc:Work>
    </rdf:RDF>
  </metadata>
  <g
     transform="translate(55.092609,-316.60834)"
     id="layer1"
     inkscape:groupmode="layer"
     inkscape:label="Layer 1">
    <path
       id="path931"
       style="opacity:0.991;fill:#000000;stroke-width:1.11215"
       d="m 198.22451,406.10107 c -14.64297,-0.0446 -30.48829,0.87863 -38.24159,2.60811 -35.28627,7.87201 -68.325661,27.90057 -89.579031,54.30366 -25.61811,31.82461 -37.54734,68.8394 -35.7327,110.8723 1.046,24.22951 5.63799,42.9075 15.70653,63.88552 23.50082,48.96479 71.545601,82.73277 125.731351,88.36927 69.50268,7.23029 132.52227,-26.08292 162.57352,-85.93841 6.644,-13.23321 11.21145,-26.14885 14.40585,-40.73705 2.97579,-13.58892 2.98084,-53.12386 0.009,-66.67037 -8.50623,-38.77177 -29.85686,-72.91676 -59.51058,-95.17194 -19.21221,-14.41921 -46.38972,-26.07845 -69.97138,-30.01833 -5.91597,-0.98841 -15.37183,-1.47225 -25.3907,-1.50276 z" />
  </g>
</svg>
