<?xml version="1.0" encoding="UTF-8" standalone="no"?>
<svg
   xmlns:dc="http://purl.org/dc/elements/1.1/"
   xmlns:cc="http://creativecommons.org/ns#"
   xmlns:rdf="http://www.w3.org/1999/02/22-rdf-syntax-ns#"
   xmlns:svg="http://www.w3.org/2000/svg"
   xmlns="http://www.w3.org/2000/svg"
   xmlns:sodipodi="http://sodipodi.sourceforge.net/DTD/sodipodi-0.dtd"
   xmlns:inkscape="http://www.inkscape.org/namespaces/inkscape"
   sodipodi:docname="taiko-ring.svg"
   inkscape:version="1.0 (4035a4fb49, 2020-05-01)"
   id="svg1931"
   version="1.1"
   viewBox="0 0 500.00003 500"
   height="500mm"
   width="500.00003mm">
  <defs
     id="defs1925" />
  <sodipodi:namedview
     inkscape:window-maximized="1"
     inkscape:window-y="-8"
     inkscape:window-x="-8"
     inkscape:window-height="697"
     inkscape:window-width="1280"
     showborder="false"
     fit-margin-bottom="0"
     fit-margin-right="0"
     fit-margin-left="0"
     fit-margin-top="0"
     inkscape:pagecheckerboard="true"
     inkscape:snap-global="false"
     showgrid="false"
     inkscape:document-rotation="0"
     inkscape:current-layer="layer1"
     inkscape:document-units="mm"
     inkscape:cy="1660.5257"
     inkscape:cx="109.59928"
     inkscape:zoom="0.175"
     inkscape:pageshadow="2"
     inkscape:pageopacity="0.0"
     borderopacity="1.0"
     bordercolor="#666666"
     pagecolor="#ffffff"
     id="base" />
  <metadata
     id="metadata1928">
    <rdf:RDF>
      <cc:Work
         rdf:about="">
        <dc:format>image/svg+xml</dc:format>
        <dc:type
           rdf:resource="http://purl.org/dc/dcmitype/StillImage" />
        <dc:title></dc:title>
      </cc:Work>
    </rdf:RDF>
  </metadata>
  <g
     transform="translate(-118.36905,-82.083327)"
     id="layer1"
     inkscape:groupmode="layer"
     inkscape:label="Layer 1">
    <path
       style="fill:#000000;stroke-width:1.11188"
       d="M 341.65956,581.83126 C 309.18665,577.99215 283.6572,570.60255 255.51031,556.89597 184.8207,522.47104 135.8196,456.69226 120.92045,376.22167 c -2.83352,-15.30326 -3.4685,-61.55591 -1.08404,-78.96253 7.0481,-51.4547 29.5182,-98.96136 65.02982,-137.48666 32.21841,-34.95251 82.92619,-63.163228 130.65251,-72.686348 38.69893,-7.72186 83.00278,-6.449171 119.51534,3.43321 39.25543,10.624838 77.32199,32.020938 106.52567,59.875548 43.4196,41.41394 70.79421,99.20912 75.88361,160.21007 5.17345,62.01195 -11.41828,121.71833 -47.74973,171.82689 -10.04355,13.85237 -30.26349,35.03779 -43.48631,45.56292 -32.72618,26.0495 -72.41984,43.93059 -113.96117,51.33739 -10.70031,1.90799 -18.61717,2.436 -40.01778,2.66891 -14.67309,0.15888 -28.42933,0.08 -30.56881,-0.17111 z m 57.92485,-49.8353 c 23.22298,-4.27609 48.19734,-13.41697 68.09277,-24.92291 50.94541,-29.46196 85.75561,-78.15715 98.70646,-138.08014 2.20337,-10.19521 2.52365,-14.85397 2.52365,-36.70108 0,-21.84477 -0.31922,-26.48952 -2.51431,-36.56664 C 552.05524,229.89388 512.24193,178.55905 453.7529,150.48711 397.95013,123.70468 338.45425,123.46725 283.30019,149.80694 c -44.77248,21.38177 -75.95882,52.24437 -97.30297,96.29369 -26.92386,55.56432 -27.16145,116.16843 -0.67044,171.27058 11.93207,24.81871 24.49639,42.21363 43.99012,60.9025 30.2633,29.01334 71.09214,48.74744 113.43628,54.82794 13.33269,1.91431 43.6314,1.3249 56.83123,-1.10569 z m -50.69973,-39.58408 c -36.57782,-4.13459 -69.31425,-19.80668 -95.11499,-45.53434 -28.85611,-28.77518 -44.52359,-64.92301 -46.276,-106.77106 -1.76054,-42.0441 10.20023,-79.16166 35.73797,-110.90225 21.24279,-26.40232 54.26595,-46.43144 89.53491,-54.30278 12.95699,-2.89236 49.0096,-3.53668 63.60132,-1.13723 21.66427,3.56252 46.67713,13.74506 65.26089,26.56756 11.35689,7.83556 26.54419,22.51745 35.16963,33.99896 8.05548,10.72274 20.18361,34.16643 24.24221,46.86108 5.82398,18.21616 6.80588,25.58675 6.80588,51.10001 0,19.18987 -0.40836,25.77794 -2.06904,33.36469 -4.90485,22.41042 -14.65546,44.65182 -27.43319,62.57692 -8.32321,11.67624 -26.3115,29.27651 -37.77404,36.96004 -18.73567,12.55826 -41.86272,21.99494 -62.77488,25.61344 -12.36033,2.13847 -37.02616,2.94772 -48.91067,1.60496 z M 343.88264,332.35213 V 222.30938 l -5.83602,1.71331 c -23.99723,7.0469 -44.35143,21.2991 -59.96473,41.98754 -21.83442,28.93291 -28.21498,65.59348 -17.34179,99.64629 8.91597,27.92476 31.26984,54.06837 57.57538,67.33696 7.05986,3.56102 21.93269,9.18413 24.73325,9.35122 0.45858,0.0246 0.83391,-49.46941 0.83391,-109.99257 z m 55.89489,107.81161 c 35.38685,-10.93547 64.49015,-39.84165 75.60077,-75.08973 12.77189,-40.51792 0.80071,-83.97353 -31.54881,-114.52471 -15.05204,-14.21543 -25.56336,-19.98392 -50.75838,-27.85595 -1.10496,-0.34508 -1.38967,22.08916 -1.38967,109.63347 0,60.53717 0.19682,110.06804 0.43889,110.06804 0.24032,0 3.68697,-1.0042 7.6572,-2.23112 z"
       id="path911" />
  </g>
</svg>
